<svg width="220" xmlns="http://www.w3.org/2000/svg" height="154" id="screenshot-ba0ea9b7-c829-8006-8004-caa62e1c6f9c" viewBox="-39 -27 220 154" fill="none" version="1.1"><style>@font-face{font-family:&apos;Sulphur Point&apos;;font-style:normal;font-weight:400;font-display:block;src:url(https://design.penpot.app/internal/gfonts/font/sulphurpoint/v15/RLp5K5vv8KaycDcazWFPBj2adfAYupEu.woff2) format(&apos;woff2&apos;);unicode-range:U+0100-02BA, U+02BD-02C5, U+02C7-02CC, U+02CE-02D7, U+02DD-02FF, U+0304, U+0308, U+0329, U+1D00-1DBF, U+1E00-1E9F, U+1EF2-1EFF, U+2020, U+20A0-20AB, U+20AD-20C0, U+2113, U+2C60-2C7F, U+A720-A7FF}@font-face{font-family:&apos;Sulphur Point&apos;;font-style:normal;font-weight:400;font-display:block;src:url(https://design.penpot.app/internal/gfonts/font/sulphurpoint/v15/RLp5K5vv8KaycDcazWFPBj2adf4Yug.woff2) format(&apos;woff2&apos;);unicode-range:U+0000-00FF, U+0131, U+0152-0153, U+02BB-02BC, U+02C6, U+02DA, U+02DC, U+0304, U+0308, U+0329, U+2000-206F, U+20AC, U+2122, U+2191, U+2193, U+2212, U+2215, U+FEFF, U+FFFD}</style><g id="shape-ba0ea9b7-c829-8006-8004-caa62e1c6f9c"><g id="shape-ba0ea9b7-c829-8006-8004-caa5589c1b90" style="fill: rgb(0, 0, 0);"><g id="shape-ba0ea9b7-c829-8006-8004-caa5589c8e5e"><path d="M80.417 55.921a2.83 2.83 0 0 0-.923-3.384 2.77 2.77 0 0 0-3.474.158L53.735 72.382a2.832 2.832 0 0 0-.775 3.102 2.81 2.81 0 0 0 2.611 1.828h9.707l-6.695 15.767a2.83 2.83 0 0 0 .923 3.384 2.77 2.77 0 0 0 3.474-.158l22.285-19.687a2.832 2.832 0 0 0 .775-3.102 2.793 2.793 0 0 0-2.611-1.82h-9.707l6.695-15.775Z" style="fill: rgb(255, 255, 255); fill-opacity: 0;" class="fills" id="fills-ba0ea9b7-c829-8006-8004-caa5589c8e5e"/><g id="strokes-ba0ea9b7-c829-8006-8004-caa5589c8e5e" class="strokes"><g class="inner-stroke-shape"><defs><linearGradient id="stroke-color-gradient-render-4-0" x1="-.009" y1="-.011" x2=".995" y2=".997"><stop offset="0" stop-color="#5c0097"/><stop offset="1" stop-color="#002e7f"/></linearGradient><clipPath id="inner-stroke-render-4-ba0ea9b7-c829-8006-8004-caa5589c8e5e-0"><use href="#stroke-shape-render-4-ba0ea9b7-c829-8006-8004-caa5589c8e5e-0"/></clipPath><path d="M80.417 55.921a2.83 2.83 0 0 0-.923-3.384 2.77 2.77 0 0 0-3.474.158L53.735 72.382a2.832 2.832 0 0 0-.775 3.102 2.81 2.81 0 0 0 2.611 1.828h9.707l-6.695 15.767a2.83 2.83 0 0 0 .923 3.384 2.77 2.77 0 0 0 3.474-.158l22.285-19.687a2.832 2.832 0 0 0 .775-3.102 2.793 2.793 0 0 0-2.611-1.82h-9.707l6.695-15.775Z" id="stroke-shape-render-4-ba0ea9b7-c829-8006-8004-caa5589c8e5e-0" style="fill: none; stroke-width: 2; stroke: url(&quot;#stroke-color-gradient-render-4-0&quot;);"/></defs><use href="#stroke-shape-render-4-ba0ea9b7-c829-8006-8004-caa5589c8e5e-0" clip-path="url('#inner-stroke-render-4-ba0ea9b7-c829-8006-8004-caa5589c8e5e-0')"/></g></g></g></g><g id="shape-ba0ea9b7-c829-8006-8004-caa5558f4051" filter="url(#filter-render-5)" style="fill: rgb(0, 0, 0);"><defs><filter id="filter-render-5" x="-.314" y="-.355" width="1.767" height="1.868" filterUnits="objectBoundingBox" color-interpolation-filters="sRGB"><feFlood flood-opacity="0" result="BackgroundImageFix"/><feColorMatrix in="SourceAlpha" values="0 0 0 0 0 0 0 0 0 0 0 0 0 0 0 0 0 0 127 0"/><feOffset dx="4" dy="4"/><feGaussianBlur stdDeviation="2"/><feColorMatrix values="0 0 0 0 0 0 0 0 0 0 0 0 0 0 0 0 0 0 0.1 0"/><feBlend in2="BackgroundImageFix" result="filter_ba0ea9b7-c829-8006-8004-cacd7ba41d63"/><feBlend in="SourceGraphic" in2="filter_ba0ea9b7-c829-8006-8004-cacd7ba41d63" result="shape"/></filter><filter id="filter-shadow-render-5" x="-.314" y="-.355" width="1.767" height="1.868" filterUnits="objectBoundingBox" color-interpolation-filters="sRGB"><feFlood flood-opacity="0" result="BackgroundImageFix"/><feColorMatrix in="SourceAlpha" values="0 0 0 0 0 0 0 0 0 0 0 0 0 0 0 0 0 0 127 0"/><feOffset dx="4" dy="4"/><feGaussianBlur stdDeviation="2"/><feColorMatrix values="0 0 0 0 0 0 0 0 0 0 0 0 0 0 0 0 0 0 0.1 0"/><feBlend in2="BackgroundImageFix" result="filter_ba0ea9b7-c829-8006-8004-cacd7ba41d63"/><feBlend in="SourceGraphic" in2="filter_ba0ea9b7-c829-8006-8004-cacd7ba41d63" result="shape"/></filter></defs><g id="shape-ba0ea9b7-c829-8006-8004-caa555909b0d"><defs><linearGradient id="fill-color-gradient-render-7-0" x1="-.009" y1="-.011" x2=".995" y2=".997"><stop offset="0" stop-color="#300053"/><stop offset="1" stop-color="#e7b3ff"/></linearGradient><pattern patternUnits="userSpaceOnUse" x="27" y="6.902" width="86" height="62.18" id="fill-0-render-7"><rect width="86" height="62.18" style="fill: url(&quot;#fill-color-gradient-render-7-0&quot;);"/></pattern></defs><path d="M105.878 6.902H85.005c-7.181 0-13.422 4.943-14.99 11.92-1.583-6.977-7.809-11.92-14.99-11.92H34.167C30.21 6.902 27 10.094 27 14.027v36.486c0 3.934 3.21 7.125 7.167 7.125h13.392c15.259 0 19.813 3.622 21.993 11.133.105.416.776.416.896 0 2.195-7.511 6.749-11.133 21.993-11.133h13.392c3.957 0 7.167-3.191 7.167-7.125V14.042c0-3.919-3.18-7.11-7.122-7.14ZM63.132 46.298a.517.517 0 0 1-.523.519H38.676a.517.517 0 0 1-.523-.519v-3.4c0-.282.224-.519.523-.519h23.948c.284 0 .523.223.523.519l-.015 3.4Zm0-9.04a.517.517 0 0 1-.523.519H38.676a.517.517 0 0 1-.523-.519v-3.399c0-.282.224-.52.523-.52h23.948c.284 0 .523.223.523.52l-.015 3.399Zm0-9.04c0 .282-.224.52-.523.52H38.676a.518.518 0 0 1-.523-.52v-3.399c0-.282.224-.52.523-.52h23.948c.284 0 .523.223.523.52l-.015 3.399Zm38.715 18.065a.517.517 0 0 1-.523.519H77.391a.517.517 0 0 1-.523-.519v-3.399c0-.282.224-.52.523-.52h23.948c.284 0 .523.223.523.52l-.015 3.399Zm0-9.04a.517.517 0 0 1-.523.519H77.391a.517.517 0 0 1-.523-.519v-3.399c0-.282.224-.52.523-.52h23.948c.284 0 .523.223.523.52l-.015 3.399Zm0-9.04c0 .282-.224.52-.523.52H77.391a.518.518 0 0 1-.523-.52v-3.384c0-.282.224-.52.523-.52h23.948c.284 0 .523.223.523.52l-.015 3.384Z" fill="url(#fill-0-render-7)" class="fills" id="fills-ba0ea9b7-c829-8006-8004-caa555909b0d"/></g></g><g id="shape-ba0ea9b7-c829-8006-8004-cacd3ca1d24f" filter="url(#filter-render-8)"><defs><filter id="filter-render-8" x="-.3" y="-.886" width="1.692" height="3.045" filterUnits="objectBoundingBox" color-interpolation-filters="sRGB"><feFlood flood-opacity="0" result="BackgroundImageFix"/><feColorMatrix in="SourceAlpha" values="0 0 0 0 0 0 0 0 0 0 0 0 0 0 0 0 0 0 127 0"/><feOffset dx="4" dy="4"/><feGaussianBlur stdDeviation="4"/><feColorMatrix values="0 0 0 0 0 0 0 0 0 0 0 0 0 0 0 0 0 0 0.1 0"/><feBlend in2="BackgroundImageFix" result="filter_ba0ea9b7-c829-8006-8004-cacd6b83787c"/><feBlend in="SourceGraphic" in2="filter_ba0ea9b7-c829-8006-8004-cacd6b83787c" result="shape"/></filter><filter id="filter-shadow-render-8" x="-.3" y="-.886" width="1.692" height="3.045" filterUnits="objectBoundingBox" color-interpolation-filters="sRGB"><feFlood flood-opacity="0" result="BackgroundImageFix"/><feColorMatrix in="SourceAlpha" values="0 0 0 0 0 0 0 0 0 0 0 0 0 0 0 0 0 0 127 0"/><feOffset dx="4" dy="4"/><feGaussianBlur stdDeviation="4"/><feColorMatrix values="0 0 0 0 0 0 0 0 0 0 0 0 0 0 0 0 0 0 0.1 0"/><feBlend in2="BackgroundImageFix" result="filter_ba0ea9b7-c829-8006-8004-cacd6b83787c"/><feBlend in="SourceGraphic" in2="filter_ba0ea9b7-c829-8006-8004-cacd6b83787c" result="shape"/></filter></defs><g class="text-container" id="shape-ba0ea9b7-c829-8006-8004-caa389ff68f8"><defs><linearGradient id="fill-color-gradient-render-9-0-0" x1="-.009" y1="-.097" x2=".997" y2="1.135"><stop offset="0" stop-color="#5c0097"/><stop offset="1" stop-color="#002e7f"/></linearGradient><pattern patternUnits="userSpaceOnUse" x="0" y="32" width="127.734" height="36" id="fill-0-render-9-0"><rect width="127.734" height="36" style="fill: url(&quot;#fill-color-gradient-render-9-0-0&quot;);"/></pattern></defs><text y="71" dominant-baseline="ideographic" textLength="127.734" lengthAdjust="spacingAndGlyphs" fill="url(#fill-0-render-9-0)" style="text-transform: none; font-family: &quot;Sulphur Point&quot;; letter-spacing: normal; font-style: normal; font-weight: 400; white-space: pre; font-size: 36px; text-decoration: none solid rgba(0, 0, 0, 0); direction: ltr;" class="fills" id="fills-ba0ea9b7-c829-8006-8004-caa389ff68f8">Readma</text></g><g class="text-container" id="shape-ba0ea9b7-c829-8006-8004-caa5fe01b15a"><defs><pattern patternUnits="userSpaceOnUse" x="2" y="32" width="127.734" height="36" id="fill-0-render-10-0"><rect width="127.734" height="36" style="fill: rgb(255, 255, 255); fill-opacity: 1;"/></pattern></defs><text x="2" y="71" dominant-baseline="ideographic" textLength="127.734" lengthAdjust="spacingAndGlyphs" style="text-transform: none; font-family: &quot;Sulphur Point&quot;; letter-spacing: normal; font-style: normal; font-weight: 400; white-space: pre; font-size: 36px; text-decoration: none solid rgb(255, 255, 255); direction: ltr; fill: rgb(255, 255, 255); fill-opacity: 1;" class="fills" id="fills-ba0ea9b7-c829-8006-8004-caa5fe01b15a">Readma</text></g></g></g></svg>