<svg width="152" xmlns="http://www.w3.org/2000/svg" height="153" viewBox="-27 -27 152 153" fill="none"><g filter="url(#a)" style="fill: rgb(0, 0, 0);"><defs><filter id="a" x="-.314" y="-.355" width="1.767" height="1.868" filterUnits="objectBoundingBox" color-interpolation-filters="sRGB"><feFlood flood-opacity="0" result="BackgroundImageFix"/><feColorMatrix in="SourceAlpha" values="0 0 0 0 0 0 0 0 0 0 0 0 0 0 0 0 0 0 127 0"/><feOffset dx="4" dy="4"/><feGaussianBlur stdDeviation="2"/><feColorMatrix values="0 0 0 0 0 0 0 0 0 0 0 0 0 0 0 0 0 0 0 0"/><feBlend in2="BackgroundImageFix" result="filter_ba0ea9b7-c829-8006-8004-cacd7ba41d63"/><feBlend in="SourceGraphic" in2="filter_ba0ea9b7-c829-8006-8004-cacd7ba41d63" result="shape"/></filter></defs><defs><linearGradient id="c" x1="-.009" y1="-.011" x2=".995" y2=".997"><stop offset="0" stop-color="#300053" stop-opacity=".88"/><stop offset="1" stop-opacity=".815"/></linearGradient><pattern patternUnits="userSpaceOnUse" x="0" y="6.902" width="86" height="62.18" id="d"><rect width="86" height="62.18" style="fill: url(&quot;#c&quot;);"/></pattern></defs><path d="M78.878 6.902H58.005c-7.181 0-13.422 4.943-14.99 11.92-1.583-6.977-7.809-11.92-14.99-11.92H7.167C3.21 6.902 0 10.094 0 14.027v36.486c0 3.934 3.21 7.125 7.167 7.125h13.392c15.259 0 19.813 3.622 21.993 11.133.105.416.776.416.896 0 2.195-7.511 6.749-11.133 21.993-11.133h13.392c3.957 0 7.167-3.191 7.167-7.125V14.042c0-3.919-3.18-7.11-7.122-7.14ZM36.132 46.298a.517.517 0 0 1-.523.519H11.676a.517.517 0 0 1-.523-.519v-3.4c0-.282.224-.519.523-.519h23.948c.284 0 .523.223.523.519l-.015 3.4Zm0-9.04a.517.517 0 0 1-.523.519H11.676a.517.517 0 0 1-.523-.519v-3.399c0-.282.224-.52.523-.52h23.948c.284 0 .523.223.523.52l-.015 3.399Zm0-9.04a.517.517 0 0 1-.523.519H11.676a.517.517 0 0 1-.523-.519v-3.399c0-.282.224-.52.523-.52h23.948c.284 0 .523.223.523.52l-.015 3.399Zm38.715 18.065a.517.517 0 0 1-.523.519H50.391a.517.517 0 0 1-.523-.519v-3.399c0-.282.224-.52.523-.52h23.948c.284 0 .523.223.523.52l-.015 3.399Zm0-9.04c0 .282-.224.52-.523.52H50.391a.518.518 0 0 1-.523-.52v-3.399c0-.282.224-.52.523-.52h23.948c.284 0 .523.223.523.52l-.015 3.399Zm0-9.04c0 .282-.224.52-.523.52H50.391a.518.518 0 0 1-.523-.52v-3.384c0-.282.224-.52.523-.52h23.948c.284 0 .523.223.523.52l-.015 3.384Z" fill="url(#d)" class="fills"/></g><g filter="url(#e)" style="fill: rgb(0, 0, 0);"><defs><filter id="e" x="-.614" y="-.551" width="2.5" height="2.347" filterUnits="objectBoundingBox" color-interpolation-filters="sRGB"><feFlood flood-opacity="0" result="BackgroundImageFix"/><feColorMatrix in="SourceAlpha" values="0 0 0 0 0 0 0 0 0 0 0 0 0 0 0 0 0 0 127 0"/><feOffset dx="4" dy="4"/><feGaussianBlur stdDeviation="2"/><feColorMatrix values="0 0 0 0 0 0 0 0 0 0 0 0 0 0 0 0 0 0 0.1 0"/><feBlend in2="BackgroundImageFix" result="filter_a5e32f33-7151-80cc-8005-531bdd8154cf"/><feBlend in="SourceGraphic" in2="filter_a5e32f33-7151-80cc-8005-531bdd8154cf" result="shape"/></filter></defs><defs><linearGradient id="i" x1="-.009" y1="-.011" x2=".995" y2=".997"><stop offset="0" stop-color="#d3ca00"/><stop offset="1" stop-color="#c24f00"/></linearGradient><pattern patternUnits="userSpaceOnUse" x="45.969" y="39.979" width="35.031" height="47.021" id="j"><rect width="35.031" height="47.021" style="fill: url(&quot;#i&quot;);"/></pattern></defs><path d="M74.922 44.076a2.95 2.95 0 0 0-.967-3.536 2.908 2.908 0 0 0-3.639.165L46.967 61.276a2.942 2.942 0 0 0 1.925 5.152h10.169l-7.014 16.475a2.952 2.952 0 0 0 .967 3.536 2.908 2.908 0 0 0 3.639-.165l23.349-20.571a2.956 2.956 0 0 0 .812-3.242 2.926 2.926 0 0 0-2.736-1.901h-10.17l7.014-16.484Z" fill="url(#j)" class="fills"/><g class="strokes"><g class="inner-stroke-shape"><defs><clipPath id="l"><use href="#k"/></clipPath><path d="M74.922 44.076a2.95 2.95 0 0 0-.967-3.536 2.908 2.908 0 0 0-3.639.165L46.967 61.276a2.942 2.942 0 0 0 1.925 5.152h10.169l-7.014 16.475a2.952 2.952 0 0 0 .967 3.536 2.908 2.908 0 0 0 3.639-.165l23.349-20.571a2.956 2.956 0 0 0 .812-3.242 2.926 2.926 0 0 0-2.736-1.901h-10.17l7.014-16.484Z" id="k" style="fill: none; stroke-width: 2; stroke: rgb(255, 255, 255); stroke-opacity: 1;"/></defs><use href="#k" clip-path="url('#l')"/></g></g></g></svg>